<?xml version="1.0" standalone="no"?>
<!DOCTYPE svg PUBLIC "-//W3C//DTD SVG 20010904//EN"
 "http://www.w3.org/TR/2001/REC-SVG-20010904/DTD/svg10.dtd">
<svg version="1.0" xmlns="http://www.w3.org/2000/svg"
 width="700.000000pt" height="700.000000pt" viewBox="0 0 700.000000 700.000000"
 preserveAspectRatio="xMidYMid meet">
<metadata>
Created by potrace 1.14, written by Peter Selinger 2001-2017
</metadata>
<g transform="translate(0.000000,700.000000) scale(0.100000,-0.100000)"
fill="#000000" stroke="none">
<path d="M1495 4852 c-82 -125 -237 -360 -344 -522 -107 -162 -256 -388 -331
-503 l-136 -207 0 -848 1 -847 223 0 c140 0 226 3 232 10 4 5 15 37 24 70 10
33 28 96 42 140 13 44 49 163 80 265 30 102 67 223 81 270 14 47 42 145 64
218 21 72 43 141 49 152 11 20 21 20 803 20 l792 0 -1 -570 c0 -313 2 -571 5
-571 3 -1 104 -2 224 -3 140 -1 221 2 226 9 4 5 17 42 29 80 12 39 32 106 46
150 14 44 68 222 121 395 53 173 100 326 105 340 5 14 18 57 29 96 18 60 26
74 58 95 42 28 500 336 688 464 l121 81 479 -158 c264 -87 507 -163 540 -169
280 -53 479 46 559 278 9 26 11 45 5 48 -5 4 -89 47 -187 97 -97 50 -190 99
-206 108 -18 10 -44 43 -70 91 l-40 75 -165 95 c-90 52 -187 107 -214 122 -27
15 -95 54 -151 86 -55 32 -119 69 -141 81 -22 12 -179 102 -350 200 -312 179
-324 184 -445 195 -61 5 -141 14 -180 20 -14 2 -56 6 -95 10 -38 3 -88 8 -110
11 -101 12 -133 16 -315 34 -58 6 -121 13 -140 15 -19 2 -57 7 -85 10 -27 3
-68 7 -90 10 -22 2 -71 7 -110 10 -38 3 -81 8 -95 10 -14 3 -50 7 -80 10 -30
3 -77 8 -105 11 -53 7 -57 7 -173 19 -41 3 -81 8 -91 10 -9 2 -48 6 -86 9 -39
4 -86 9 -105 11 -42 5 -216 24 -285 31 -27 2 -66 7 -85 9 -19 2 -57 7 -85 10
-27 3 -90 9 -140 15 -49 5 -121 12 -160 16 -38 3 -72 8 -75 9 -3 2 -72 -99
-155 -223z"/>
<path d="M4573 3318 c-157 -229 -212 -309 -315 -456 -85 -122 -99 -147 -93
-170 6 -26 202 -574 251 -702 l25 -65 230 0 231 0 -7 45 c-4 25 -8 54 -10 65
-2 11 -6 40 -10 65 -3 25 -8 54 -9 65 -2 11 -6 40 -10 65 -9 52 -12 77 -21
140 -3 25 -8 52 -10 60 -2 8 -7 40 -10 70 -3 30 -8 62 -10 70 -3 8 -7 35 -10
59 -3 23 -7 55 -10 70 -7 43 -24 153 -30 196 -5 35 -14 98 -31 210 -3 17 -6
37 -9 45 -2 8 -7 42 -10 75 -4 32 -8 62 -10 65 -1 3 -6 31 -9 63 -13 110 -13
111 -113 -35z"/>
<path d="M2354 2897 c-34 -45 -138 -182 -232 -305 l-170 -223 17 -47 c45 -121
146 -378 152 -387 11 -14 465 -13 462 2 -1 5 -5 32 -9 59 -3 27 -8 58 -10 69
-2 10 -6 37 -9 60 -9 57 -12 79 -29 180 -17 97 -24 143 -30 190 -6 37 -11 72
-41 255 -13 80 -26 163 -29 184 -4 22 -8 41 -9 42 -1 1 -30 -34 -63 -79z"/>
</g>
</svg>
